<svg xmlns="http://www.w3.org/2000/svg" width="15.777" height="18" viewBox="0 0 15.777 18"><defs><style>.a{fill:#3b366e;}.b{fill:#f15a22;}</style></defs><g transform="translate(-8.386 -2.487)"><path class="a" d="M41.83,32.479l-1.29-1.972a1.259,1.259,0,0,1-.114-.379,5.073,5.073,0,0,0-10.127.436,5.873,5.873,0,0,0,2.029,4.362.659.659,0,0,1,.247.493v2.9a.435.435,0,0,0,.4.436l4.362.379a.439.439,0,0,0,.474-.436V36.651a.251.251,0,0,1,.247-.247h1.536a.85.85,0,0,0,.853-.853V33.522a.17.17,0,0,1,.171-.171h.74A.567.567,0,0,0,41.83,32.479ZM32.67,30.355a.432.432,0,0,1-.436.379h-.019a.41.41,0,0,1-.379-.455,3.859,3.859,0,0,1,1.119-2.351,3.908,3.908,0,0,1,2.351-1.119.423.423,0,0,1,.455.379v.019a.405.405,0,0,1-.379.436,3.094,3.094,0,0,0-1.839.872A2.989,2.989,0,0,0,32.67,30.355Zm3.186-.853a1.53,1.53,0,0,0-1.327,1.327.4.4,0,0,1-.436.36.41.41,0,0,1-.379-.455A2.245,2.245,0,0,1,34.4,29.35a2.4,2.4,0,0,1,1.384-.683.419.419,0,1,1,.076.834Z" transform="translate(-17.759 -18.649)"/><path class="b" d="M21.627,14.912l-1.441-1.441a.577.577,0,0,0-.815.815l1.441,1.441a.577.577,0,1,0,.815-.815Z" transform="translate(-8.764 -8.762)"/><path class="b" d="M11.081,30.2l-1.9-.778a.587.587,0,0,0-.759.322.6.6,0,0,0,.3.759l1.9.778a.481.481,0,0,0,.228.038.571.571,0,0,0,.531-.36A.563.563,0,0,0,11.081,30.2Z" transform="translate(0 -21.799)"/><path class="b" d="M36.124,5.182a.571.571,0,0,0,.531.36.952.952,0,0,0,.228-.038.557.557,0,0,0,.3-.759l-.778-1.9a.583.583,0,1,0-1.081.436Z" transform="translate(-21.8)"/></g></svg>