<svg xmlns="http://www.w3.org/2000/svg" width="24.693" height="18" viewBox="0 0 24.693 18"><defs><style>.a{fill:#3b366e;}.b{fill:#f15a22;}</style></defs><g transform="translate(-1044.5 -1299)"><path class="a" d="M79.123,15.623A.9.9,0,1,0,77.849,16.9a10.52,10.52,0,0,1,3.067,7.46,10.377,10.377,0,0,1-3.093,7.434.879.879,0,0,0,0,1.274.942.942,0,0,0,1.3,0,12.331,12.331,0,0,0,0-17.441Z" transform="translate(986.458 1283.65)"/><path class="a" d="M4.319,24.431A10.333,10.333,0,0,1,7.413,17a.9.9,0,0,0-1.274-1.274A12.019,12.019,0,0,0,2.5,24.431a12.247,12.247,0,0,0,3.613,8.734.942.942,0,0,0,1.3,0,.879.879,0,0,0,0-1.274A10.481,10.481,0,0,1,4.319,24.431Z" transform="translate(1042 1283.576)"/><path class="a" d="M67.4,27.423A.9.9,0,0,0,66.123,28.7a6.15,6.15,0,0,1,0,8.734.879.879,0,0,0,0,1.274.942.942,0,0,0,1.3,0,7.924,7.924,0,0,0,2.339-5.64A8.105,8.105,0,0,0,67.4,27.423Z" transform="translate(995.116 1274.917)"/><path class="a" d="M21.094,33.163A6.114,6.114,0,0,1,22.913,28.8a.9.9,0,1,0-1.274-1.274,8,8,0,0,0,.026,11.333.91.91,0,0,0,1.3-1.274A6.16,6.16,0,0,1,21.094,33.163Z" transform="translate(1029.567 1274.843)"/><path class="b" d="M42.374,36.5a.818.818,0,0,0-1.274.676v5.432a.818.818,0,0,0,1.274.676l4.081-2.729a.826.826,0,0,0,0-1.378Z" transform="translate(1013.433 1268.099)"/></g></svg>