<svg xmlns="http://www.w3.org/2000/svg" width="13.213" height="18" viewBox="0 0 13.213 18"><defs><style>.a{fill:#3b366e;fill-rule:evenodd;}.b{fill:#f15a22;}</style></defs><g transform="translate(-43.704 -1037)"><path class="a" d="M27.481,5.591H17.14A1.436,1.436,0,0,0,15.7,7.027V22.155a1.436,1.436,0,0,0,1.436,1.436H27.481a1.436,1.436,0,0,0,1.436-1.436V7.027A1.436,1.436,0,0,0,27.481,5.591Zm-5.17,17.33a1.053,1.053,0,1,1,1.053-1.053A1.053,1.053,0,0,1,22.311,22.921Zm5.266-4.883a1.436,1.436,0,0,1-1.436,1.436h-7.66a1.436,1.436,0,0,1-1.436-1.436V8.367a1.436,1.436,0,0,1,1.436-1.436H26.14a1.436,1.436,0,0,1,1.436,1.436v9.67Z" transform="translate(28 1031.409)"/><rect class="b" width="7.893" height="1.804" rx="0.902" transform="translate(46.251 1039.706)"/><rect class="b" width="7.442" height="1.804" rx="0.902" transform="translate(46.251 1042.638)"/><rect class="b" width="6.314" height="1.804" rx="0.902" transform="translate(46.251 1045.569)"/></g></svg>