<svg xmlns="http://www.w3.org/2000/svg" width="18" height="18" viewBox="0 0 18 18"><defs><style>.a{fill:#3b366e;}.b{fill:#f15a22;}</style></defs><g transform="translate(-931 -1089)"><g transform="translate(931 1089)"><path class="a" d="M13,22a9,9,0,1,1,9-9A9.01,9.01,0,0,1,13,22ZM13,6.348A6.652,6.652,0,1,0,19.652,13,6.66,6.66,0,0,0,13,6.348Z" transform="translate(-4 -4)"/></g><g transform="translate(936.576 1094.576)"><path class="b" d="M35.924,39.348a3.424,3.424,0,1,1,3.424-3.424A3.428,3.428,0,0,1,35.924,39.348Zm0-4.5A1.076,1.076,0,1,0,37,35.924,1.077,1.077,0,0,0,35.924,34.848Z" transform="translate(-32.5 -32.5)"/></g></g></svg>